<?xml version="1.0" encoding="UTF-8" standalone="no"?>
<!-- Created with Inkscape (http://www.inkscape.org/) -->

<svg
   version="1.1"
   id="svg1"
   width="860"
   height="860"
   viewBox="0 0 860 860"
   sodipodi:docname="aeon-logo-blue.svg"
   inkscape:version="1.3.2 (091e20e, 2023-11-25)"
   xmlns:inkscape="http://www.inkscape.org/namespaces/inkscape"
   xmlns:sodipodi="http://sodipodi.sourceforge.net/DTD/sodipodi-0.dtd"
   xmlns="http://www.w3.org/2000/svg"
   xmlns:svg="http://www.w3.org/2000/svg">
  <defs
     id="defs1">
    <linearGradient
       x1="286.603"
       y1="348.397"
       x2="352.41101"
       y2="352.328"
       gradientUnits="userSpaceOnUse"
       gradientTransform="matrix(10,0,0,10,0,4.00024)"
       spreadMethod="pad"
       id="linearGradient6">
      <stop
         style="stop-opacity:1;stop-color:#f7d712"
         offset="0"
         id="stop5" />
      <stop
         style="stop-opacity:1;stop-color:#f68243"
         offset="1"
         id="stop6" />
    </linearGradient>
    <clipPath
       clipPathUnits="userSpaceOnUse"
       id="clipPath6">
      <path
         d="m 2816.09,3945.16 c 40.75,-162.27 272.46,-429.46 336.96,-591.76 5.04,-13.75 8.2,-28.13 9.41,-42.7 4.73,-50.5 15.78,-178.83 15.9,-183.9 0.31,-14.38 16.84,-22.62 28.87,-14.38 5.04,3.44 7.97,9.14 7.85,15.2 -0.08,4.33 3.87,110 6.05,167.34 0.78,24.18 6.92,47.89 17.93,69.38 118.48,229.84 246.53,349.14 310.43,549.25 -101.6,-21.52 -217.46,-109.22 -292.34,-174.29 -19.42,-17.03 -44.85,-25.47 -70.51,-23.4 -25.66,2.07 -49.41,14.45 -65.9,34.33 -125.11,150.16 -303.98,194.77 -304.65,194.93"
         clip-rule="evenodd"
         id="path6" />
    </clipPath>
    <linearGradient
       x1="319.24799"
       y1="296.991"
       x2="319.42899"
       y2="307.41101"
       gradientUnits="userSpaceOnUse"
       gradientTransform="matrix(10,0,0,10,0,4.00024)"
       spreadMethod="pad"
       id="linearGradient8">
      <stop
         style="stop-opacity:1;stop-color:#f68243"
         offset="0"
         id="stop7" />
      <stop
         style="stop-opacity:1;stop-color:#f7d712"
         offset="1"
         id="stop8" />
    </linearGradient>
    <clipPath
       clipPathUnits="userSpaceOnUse"
       id="clipPath8">
      <path
         d="m 3168.36,2980.51 c 2.11,-5.98 7.97,-7.89 14.3,-5.74 l 50.19,17.1 c 4.88,1.68 7.5,6.8 5.82,11.61 -1.72,4.8 -7.03,7.34 -11.91,5.66 l -32.23,-10.98 11.02,16.57 c 11.99,18.04 17.26,28.28 11.87,43.47 l -0.08,0.24 c -5.97,17.03 -22.57,23.75 -41.71,17.22 -13.99,-4.8 -20.98,-12.69 -25.4,-23.67 -0.85,-2.19 -0.93,-4.8 -0.15,-7.03 1.76,-5.08 7.26,-7.69 12.42,-5.94 3.16,1.1 5.04,3.32 5.86,5.2 3.24,7.23 6.44,11.09 12.27,13.05 7.26,2.5 13.86,0.07 16.6,-7.58 2.65,-7.54 -0.08,-14.1 -8.28,-27.27 l -18.83,-30.12 c -2.46,-3.9 -3.13,-7.89 -1.76,-11.79"
         id="path8" />
    </clipPath>
  </defs>
  <sodipodi:namedview
     id="namedview1"
     pagecolor="#ffffff"
     bordercolor="#000000"
     borderopacity="0.25"
     inkscape:showpageshadow="2"
     inkscape:pageopacity="0.0"
     inkscape:pagecheckerboard="0"
     inkscape:deskcolor="#d1d1d1"
     inkscape:zoom="0.62790698"
     inkscape:cx="430"
     inkscape:cy="432.38889"
     inkscape:window-width="1456"
     inkscape:window-height="888"
     inkscape:window-x="61"
     inkscape:window-y="38"
     inkscape:window-maximized="0"
     inkscape:current-layer="g1">
    <inkscape:page
       x="0"
       y="0"
       inkscape:label="1"
       id="page1"
       width="860"
       height="860"
       margin="0"
       bleed="0" />
  </sodipodi:namedview>
  <g
     id="g1"
     inkscape:groupmode="layer"
     inkscape:label="1">
    <path
       id="path1"
       d="M 0,3.99219 H 6446.05 V 6450.0422 H 0 Z"
       style="fill:#ffffff;fill-opacity:0;fill-rule:evenodd;stroke:none"
       transform="matrix(0.13333333,0,0,-0.13333333,0,860)" />
    <g
       id="g12"
       transform="matrix(1.2796354,0,0,1.2796354,-121.29108,-121.28885)">
      <path
         id="path2"
         d="m 3788.13,2139.61 c 0,11.56 -4.54,22.66 -12.66,30.82 -8.13,8.16 -19.14,12.77 -30.63,12.77 -185.86,0 -915.11,0 -1100.97,0 -11.49,0 -22.5,-4.61 -30.63,-12.77 -8.08,-8.16 -12.65,-19.26 -12.65,-30.82 0,-44.38 0,-106.72 0,-106.72 h 1187.54 c 0,0 0,62.34 0,106.72"
         style="fill:#f36817;fill-opacity:1;fill-rule:evenodd;stroke:none"
         transform="matrix(0.13333333,0,0,-0.13333333,0,860)" />
      <path
         id="path3"
         d="M 3788.13,4361.02 H 2600.59 c 0,0 0,-47.93 0,-89.65 0,-33.52 26.95,-60.67 60.23,-60.67 203.44,0 863.63,0 1067.07,0 33.28,0 60.24,27.15 60.24,60.67 0,41.72 0,89.65 0,89.65"
         style="fill:#f8c416;fill-opacity:1;fill-rule:evenodd;stroke:none"
         transform="matrix(0.13333333,0,0,-0.13333333,0,860)" />
      <path
         id="path4"
         d="m 2787.34,2659.06 c -25.07,-3.04 -51.25,-4.57 -78.47,-4.57 -127.66,0 -240.28,41.41 -337.82,124.22 -97.57,82.81 -146.36,217.5 -146.36,404.1 0,174.89 44.02,308.95 132.11,402.27 88.04,93.28 202.3,139.96 342.85,139.96 53.05,0 102.73,-6.37 149.06,-19.1 116.8,-182.66 249.22,-331.99 249.22,-508.67 0,-26.02 -2.85,-51.45 -8.13,-76.45 -4.33,-0.59 -8.71,-0.9 -13.08,-0.9 -131.09,-0.12 -361.09,-0.12 -491.13,-0.12 -26.84,0 -52,-13.12 -67.46,-35.15 -15.47,-22.03 -19.38,-50.28 -10.43,-75.74 15.97,-44.34 41.21,-78.48 75.97,-102.31 36.21,-25.31 79.77,-38.01 130.71,-38.01 53.98,0 97.85,15.47 131.6,46.37 5.15,4.65 10.07,9.77 14.88,15.43 28.91,34.26 71.33,53.98 115.98,53.98 3.94,0.08 8,0.08 12.11,0.08 15.74,0 30.93,-3.4 44.72,-9.68 -52.54,-98.44 -129.22,-196.72 -198.28,-307.74 -70.16,-112.73 -132.38,-238.63 -153.48,-391.21 -16.6,156.33 61.29,310.31 105.47,383.24 z m 755.63,1051.6 c 74.37,116.92 141.83,247.58 163.91,407.78 0.03,-8.67 0.07,-19.14 0.15,-31.88 0.9,-140.08 -76.44,-297.54 -113.59,-365.04 36.05,6.06 74.57,9.07 115.54,9.07 172.47,0 301.02,-53.44 385.71,-160.36 84.65,-106.87 126.99,-233.24 126.99,-379.06 0,-148.32 -42.34,-275.12 -126.99,-380.51 -84.69,-105.35 -213.24,-158 -385.71,-158 -57.42,0 -109.96,5.86 -157.61,17.54 -119.38,191.09 -260.63,344.57 -260.63,527.07 0,178.2 134.73,328.59 252.23,513.39 z M 1387.46,3588.79 c 69.34,88.98 188.4,133.48 357.15,133.48 109.8,0 207.38,-21.96 292.69,-65.82 85.28,-43.87 127.93,-126.68 127.93,-248.4 v -463.44 c 0,-14.06 0.79,-71.45 1.65,-131.52 0.42,-41.92 -15.83,-82.23 -45.12,-112.04 -29.3,-29.76 -69.22,-46.56 -110.82,-46.56 h -0.04 c -43.63,0 -81.02,31.56 -88.6,74.85 -1.21,6.83 -2.22,12.5 -2.81,16.01 -3.08,17.89 -5.54,38.28 -7.38,61.17 -36.21,-39.57 -77.93,-73.24 -125.2,-101.01 -56.44,-32.78 -120.27,-49.14 -191.44,-49.14 -90.82,0 -165.82,26.09 -225.04,78.32 -59.22,52.22 -88.83,126.21 -88.83,221.95 0,124.22 47.58,214.14 142.7,269.73 52.15,30.27 128.83,51.91 230.08,64.88 l 89.29,11.13 c 48.48,6.17 83.17,13.91 104.03,23.17 37.42,16.05 56.13,41.09 56.13,75.07 0,41.41 -14.26,69.97 -42.81,85.75 -28.52,15.74 -70.39,23.63 -125.63,23.63 -61.99,0 -105.86,-15.47 -131.64,-46.37 -6.56,-8.16 -12.34,-17.34 -17.38,-27.58 -19.69,-39.84 -60.12,-65.03 -104.34,-65.03 0,-0.04 0,-0.04 -0.04,-0.04 -47.69,0 -91.44,26.6 -113.63,69.14 -22.23,42.5 -19.18,93.9 7.85,133.47 3.75,5.08 7.42,10.2 11.25,15.2 z m 3399.92,-86.21 c -88.98,0 -150.04,-38.01 -183.16,-113.99 -17.19,-40.19 -25.78,-91.44 -25.78,-153.86 0,0 0,-253.44 0,-415.24 0,-72.69 -58.52,-131.6 -130.67,-131.6 h -0.04 c -34.64,0 -67.89,13.87 -92.42,38.52 -24.49,24.68 -38.28,58.16 -38.28,93.08 0,191.37 0,544.88 0,739.46 0,75.85 61.1,137.34 136.41,137.34 h 0.04 c 64.45,0 116.68,-52.62 116.68,-117.5 0,-17.54 0,-29.88 0,-29.88 33.75,51.91 65.66,89.29 95.74,112.14 53.98,40.79 122.42,61.22 205.23,61.22 103.71,0 188.56,-27.39 254.53,-82.04 65.94,-54.68 98.95,-145.39 98.95,-272.03 0,0 0,-346.6 0,-545 0,-35.9 -14.18,-70.31 -39.38,-95.7 -25.19,-25.35 -59.37,-39.61 -95,-39.61 h -0.03 c -74.22,0 -134.38,60.59 -134.38,135.31 0,180.9 0,479.18 0,479.18 0,53.13 -7.03,93.91 -21.17,122.35 -25.74,51.91 -74.85,77.85 -147.27,77.85 z m -3204.8,-623.75 c 24.57,-20.39 54.65,-30.63 90.23,-30.63 56.45,0 108.44,16.72 156.02,50.08 47.54,33.36 72.22,94.22 74.06,182.58 0,0 0,17.66 0,38.01 0,12.22 -5.98,23.71 -15.98,30.62 -10.03,6.96 -22.81,8.48 -34.14,4.14 h -0.04 c -16.87,-6.48 -40.03,-12.54 -69.49,-18.08 l -58.9,-11.14 c -55.24,-9.88 -94.81,-21.91 -118.75,-36.13 -40.47,-24.1 -60.75,-61.48 -60.75,-112.15 0,-45.11 12.58,-77.54 37.74,-97.3 z m 2125.51,628.4 c -76.72,0 -135.79,-27.35 -177.19,-82.03 -41.45,-54.69 -62.15,-132.7 -62.15,-234.03 0,-101.37 20.7,-179.53 62.15,-234.53 41.4,-54.96 100.47,-82.46 177.19,-82.46 76.68,0 135.58,27.5 176.71,82.46 41.14,55 61.68,133.16 61.68,234.53 0,101.33 -20.54,179.34 -61.68,234.03 -41.13,54.68 -100.03,82.03 -176.71,82.03 z m -911.72,-213.21 c 30.35,0 58.24,16.76 72.65,43.64 14.42,26.91 13.05,59.57 -3.59,85.15 -7.58,11.02 -15.98,21.14 -25.43,30.2 -37.73,36.13 -84.53,54.22 -140.35,54.22 -60.74,0 -107.85,-19.18 -141.29,-57.46 -7.73,-8.87 -14.81,-18.48 -21.21,-28.79 -15.78,-25.59 -16.56,-57.78 -2.03,-84.11 14.57,-26.32 42.11,-42.65 72.03,-42.65 58.98,-0.2 130.98,-0.2 189.22,-0.2"
         style="fill:#008fc3;fill-opacity:1;fill-rule:nonzero;stroke:none"
         transform="matrix(0.13333333,0,0,-0.13333333,0,860)" />
      <path
         id="path5"
         d="m 2816.09,3945.16 c 40.75,-162.27 272.46,-429.46 336.96,-591.76 5.04,-13.75 8.2,-28.13 9.41,-42.7 4.73,-50.5 15.78,-178.83 15.9,-183.9 0.31,-14.38 16.84,-22.62 28.87,-14.38 5.04,3.44 7.97,9.14 7.85,15.2 -0.08,4.33 3.87,110 6.05,167.34 0.78,24.18 6.92,47.89 17.93,69.38 118.48,229.84 246.53,349.14 310.43,549.25 -101.6,-21.52 -217.46,-109.22 -292.34,-174.29 -19.42,-17.03 -44.85,-25.47 -70.51,-23.4 -25.66,2.07 -49.41,14.45 -65.9,34.33 -125.11,150.16 -303.98,194.77 -304.65,194.93"
         style="fill:url(#linearGradient6);fill-opacity:1;fill-rule:nonzero;stroke:none"
         transform="matrix(0.13333333,0,0,-0.13333333,0,860)"
         clip-path="url(#clipPath6)" />
      <path
         id="path7"
         d="m 3168.36,2980.51 c 2.11,-5.98 7.97,-7.89 14.3,-5.74 l 50.19,17.1 c 4.88,1.68 7.5,6.8 5.82,11.61 -1.72,4.8 -7.03,7.34 -11.91,5.66 l -32.23,-10.98 11.02,16.57 c 11.99,18.04 17.26,28.28 11.87,43.47 l -0.08,0.24 c -5.97,17.03 -22.57,23.75 -41.71,17.22 -13.99,-4.8 -20.98,-12.69 -25.4,-23.67 -0.85,-2.19 -0.93,-4.8 -0.15,-7.03 1.76,-5.08 7.26,-7.69 12.42,-5.94 3.16,1.1 5.04,3.32 5.86,5.2 3.24,7.23 6.44,11.09 12.27,13.05 7.26,2.5 13.86,0.07 16.6,-7.58 2.65,-7.54 -0.08,-14.1 -8.28,-27.27 l -18.83,-30.12 c -2.46,-3.9 -3.13,-7.89 -1.76,-11.79"
         style="fill:url(#linearGradient8);fill-opacity:1;fill-rule:nonzero;stroke:none"
         transform="matrix(0.13333333,0,0,-0.13333333,0,860)"
         clip-path="url(#clipPath8)" />
      <path
         id="path9"
         d="m 3145.31,2810.55 c 20.9,-11.57 41.06,-5.9 51.02,11.44 l 0.15,0.28 c 9.81,17.1 1.1,30.58 -10.43,39.72 l 28.25,7.11 c 5.78,1.49 9.76,2.93 12.61,7.93 3.17,5.51 0.71,11.41 -5.31,14.73 l -45.66,25.27 c -4.81,2.66 -11.1,0.94 -13.79,-3.83 -2.74,-4.72 -0.98,-10.9 3.83,-13.55 l 28.82,-15.94 -28.55,-7.97 c -5.04,-1.37 -7.58,-3.08 -9.18,-5.86 -2.69,-4.72 -0.94,-10.9 3.87,-13.55 l 3.2,-1.8 c 11.52,-6.37 15.94,-14.33 11.64,-21.87 l -0.15,-0.24 c -3.91,-6.87 -11.88,-8.16 -19.65,-3.87 -7.39,4.07 -11.64,9.57 -14.42,17 -0.86,2.22 -2.18,4.53 -5.15,6.13 -5.36,2.97 -12.46,1.02 -15.47,-4.26 -1.64,-2.89 -1.64,-6.52 -0.67,-9.18 3.95,-10.66 11.64,-20.31 25.04,-27.69"
         style="fill:#f36817;fill-opacity:1;fill-rule:nonzero;stroke:none"
         transform="matrix(0.13333333,0,0,-0.13333333,0,860)" />
      <path
         id="path10"
         d="m 3071.64,2695.74 c 0.94,-8.28 8.16,-14.02 16.56,-13.12 8.4,0.9 14.46,8.04 13.56,16.29 l -1.84,16.91 7.54,0.82 c 7.19,0.74 12.34,6.8 11.56,13.83 -0.78,7.07 -7.11,12.11 -14.29,11.33 l -7.58,-0.78 -7.97,72.85 c -0.9,8.28 -8.4,13.98 -16.76,13.08 -9.22,-0.93 -13.32,-5.08 -18.51,-12.54 l -54.5,-77.65 c -4.1,-5.94 -6.21,-11.25 -5.5,-17.7 0.89,-8.24 8.51,-13.55 16.91,-12.65 l 58.98,6.25 z m -42.69,38.05 33.28,47.93 4.8,-43.91 -38.08,-4.02"
         style="fill:#f36817;fill-opacity:1;fill-rule:nonzero;stroke:none"
         transform="matrix(0.13333333,0,0,-0.13333333,0,860)" />
      <path
         id="path11"
         d="m 3206.68,2681.37 c 28.98,-21.88 62.73,-19.69 84.1,7.73 l 0.27,0.35 c 22.86,29.26 12.23,56.68 -13.75,76.29 -7.38,5.55 -12.81,8.17 -19.06,10.86 l 18.99,21.25 44.41,-33.51 c 6.99,-5.28 17.15,-4.11 22.5,2.77 5.35,6.84 3.99,16.95 -2.97,22.23 l -57.26,43.16 c -6.96,5.27 -16.61,4.02 -22.35,-2.54 l -36.87,-41.91 c -4.14,-4.53 -5.47,-9.69 -3.67,-15.43 2.65,-8.52 4.57,-12.58 8.71,-15.71 3.94,-2.96 11.44,-3.36 22.54,-11.71 13.75,-10.4 18.32,-24.11 9.64,-35.2 l -0.31,-0.39 c -8.94,-11.49 -23.05,-11.13 -35.27,-1.91 -9.22,6.99 -14.92,15.39 -18.56,27.22 -0.93,3.36 -2.5,6.02 -5.89,8.56 -7.5,5.7 -18.64,4.1 -24.42,-3.32 -3.75,-4.81 -4.22,-10.36 -2.69,-15.36 4.76,-15.35 13.63,-29.68 31.91,-43.43"
         style="fill:#f36817;fill-opacity:1;fill-rule:nonzero;stroke:none"
         transform="matrix(0.13333333,0,0,-0.13333333,0,860)" />
      <path
         id="path12"
         d="m 3134.73,2493.59 c -0.12,0.32 -0.28,0.63 -0.39,0.9 -1.45,3.36 -2.19,9.46 -1.64,13.95 l 17.81,146.05 -70.43,-29.18 c -9.73,-4.02 -20.82,0.2 -24.88,9.77 -4.11,9.57 0.43,20.58 10.15,24.61 l 99.85,41.36 c 11.28,4.69 21.13,1.18 26.01,-10.19 2.54,-5.94 3.28,-14.14 2.54,-21.76 l -12.81,-119.69 c 9.41,6.37 18.55,8.25 27.73,6.37 0.67,5.63 2.35,11.25 5.08,16.76 l 0.27,0.51 c 11.06,22.11 27.86,30.11 51.84,29.49 -10,15.47 -13.4,31.64 -3.67,51.13 l 0.23,0.55 c 13.91,27.81 50.86,37.38 90,18.51 39.14,-18.9 54.14,-53.28 40.12,-81.32 l -0.27,-0.55 c -9.73,-19.49 -24.81,-26.72 -43.4,-28.4 13.98,-18.67 19.26,-35.74 8.47,-57.34 l -0.27,-0.51 c -5.08,-10.16 -12.27,-17.7 -20.94,-22.77 0.43,-0.36 0.9,-0.75 1.29,-1.1 8.13,-7.03 16.96,-13.2 26.45,-18.51 9.49,-5.28 19.45,-9.61 29.92,-12.93 10.43,-3.32 21.13,-5.59 32.11,-6.84 10.94,-1.17 21.91,-1.33 32.89,-0.39 13.63,1.25 28.32,3.87 42.34,4.61 2.07,8.4 2.19,18.05 0.59,28.48 -7.89,-11.21 -20.51,-20.47 -38.75,-25.24 -45.59,-11.83 -81.6,5.28 -92.89,47.11 l -0.16,0.59 c -11.17,41.56 13.24,80.7 60.59,93.04 28.16,7.31 46.48,4.85 66.6,-6.64 18.94,-10.86 34.84,-30.66 45.78,-71.32 l 0.2,-0.59 c 7.65,-28.44 8.47,-54.57 2.3,-76.37 0.63,-0.54 1.21,-1.05 1.84,-1.64 61.99,-58.51 51.6,-201.6 51.6,-201.6 0,0 -719.22,-1.37 -805.9,-1.37 -0.04,0 -0.98,149.92 65.39,212.42 18.71,17.66 43.95,25.59 69.77,25 -44.96,48.01 -57.31,104.97 -10.39,148.87 15.97,14.96 32.69,23.32 47.73,26.68 8.55,1.99 16.76,0.7 23.52,-6.25 8.71,-8.98 7.89,-23.01 -1.25,-31.56 -2.97,-2.81 -7.27,-4.69 -11.1,-5.67 -11.21,-2.81 -20,-6.75 -29.61,-15.74 -19.88,-18.59 -14.72,-43.75 3.01,-66.56 3.01,12.66 7.58,26.37 23.36,41.13 31.76,29.73 72.97,35.32 104.73,2.5 l 0.43,-0.47 c 29.8,-30.74 26.71,-74.96 -4.07,-107.22 21.6,8.08 42.93,21.01 60.28,39.33 z m -94.65,-15.19 c -17.38,-16.25 -37.7,-15.98 -50.51,-2.74 l -0.47,0.47 c -12.81,13.24 -11.87,32.07 5.47,48.36 17.38,16.25 37.23,16.41 50.08,3.17 l 0.43,-0.43 c 13.05,-13.52 12.34,-32.58 -5,-48.83 z m 420.19,11.21 c -22.77,-5.94 -39.96,3.16 -44.88,21.44 l -0.16,0.59 c -4.92,18.24 4.5,34.57 27.27,40.51 23.09,6.01 40.43,-3.67 45.35,-21.95 l 0.16,-0.59 c 4.76,-17.66 -4.96,-34.06 -27.74,-40 z m -184.84,28.94 c -20.12,9.69 -26.95,25.59 -20.7,38.05 l 0.23,0.55 c 7.03,14.02 24.69,15.82 43.2,6.87 18.48,-8.9 27.82,-23.75 20.82,-37.77 l -0.27,-0.55 c -6.37,-12.73 -23.2,-16.87 -43.28,-7.15 z m 38.55,77.19 c -16.13,7.81 -21.64,22.42 -15.27,35.16 l 0.27,0.51 c 5.59,11.17 20.32,16.32 36.96,8.28 16.64,-8.05 21.36,-22.89 15.78,-34.07 l -0.24,-0.54 c -6.36,-12.74 -21.36,-17.11 -37.5,-9.34"
         style="fill:#f36817;fill-opacity:1;fill-rule:evenodd;stroke:none"
         transform="matrix(0.13333333,0,0,-0.13333333,0,860)" />
    </g>
  </g>
</svg>
